<?xml version="1.0" encoding="utf-8" ?>
<svg xmlns="http://www.w3.org/2000/svg" xmlns:xlink="http://www.w3.org/1999/xlink" width="1024" height="1024">
	<path fill="#FEDDCD" d="M0 0L11.2909 0L57.3328 0L580.21 0L641.686 0L743.907 0L796.005 0L819.196 0L917.056 0L1024 0L1024 154.667L1024 191.564L1024 201.043L1024 554.358L1024 634.442L1024 657.17L1024 676.495L1024 685.335L1024 698.394L1024 731.861L1024 752.385L1024 773.399L1024 1004.26L1024 1024L1009.69 1024L967.174 1024L443.919 1024L383.192 1024L278.719 1024L224.907 1024L205.769 1024L106.762 1024L0 1024L0 867.935L0 834.929L0 817.456L0 467.831L0 392.494L0 376.046L0 347.539L0 340.991L0 324.58L0 287.131L0 272.762L0 243.628L0 25.2673L0 0Z"/>
	<path fill="#B2436C" d="M580.21 0L641.686 0C637.316 14.6573 635.224 30.5869 633.804 45.7962C633.079 53.3813 633.165 61.0326 632.54 68.6277C633.307 93.0871 637.508 118.62 645.169 141.875C646.209 146.037 649.628 158.975 651.682 161.993C656.149 173.965 661.583 186.061 667.587 197.338C671.47 204.63 676.549 212.085 679.56 219.751C682.607 224.498 690.675 238.972 694.583 241.649C693.627 253.99 692.205 266.308 691.542 278.67C691.071 287.443 691.463 296.781 690.294 305.452C690.136 305.28 689.975 305.111 689.819 304.937C672.39 285.359 656.4 263.863 642.169 241.865C591.691 163.838 576.216 92.1179 580.21 0Z"/>
	<path fill="#727DC6" d="M333.199 723.081Q336.511 726.375 339.741 729.749Q342.97 733.124 346.116 736.576Q349.262 740.029 352.321 743.559Q355.381 747.088 358.353 750.692Q361.324 754.295 364.206 757.971Q367.088 761.647 369.879 765.393Q372.669 769.138 375.367 772.952Q378.064 776.765 380.667 780.643Q383.27 784.522 385.776 788.464Q388.282 792.405 390.691 796.407Q393.099 800.41 395.408 804.47Q397.717 808.53 399.925 812.646Q402.134 816.762 404.24 820.931Q406.346 825.1 408.349 829.32Q410.352 833.539 412.25 837.807Q414.149 842.075 415.941 846.388Q417.734 850.702 419.42 855.058Q421.105 859.414 422.683 863.81Q424.261 868.206 425.73 872.64Q427.199 877.074 428.559 881.543Q429.918 886.012 431.167 890.512Q432.416 895.013 433.554 899.544Q434.691 904.074 435.717 908.631Q436.743 913.188 437.656 917.768Q438.569 922.349 439.369 926.951Q440.169 931.553 440.855 936.173Q441.541 940.793 442.113 945.429Q442.686 950.065 443.143 954.713Q443.601 959.362 443.944 964.02Q444.288 968.678 444.516 973.344Q444.744 978.009 444.858 982.679Q444.971 987.348 444.969 992.019Q444.945 1008.03 443.919 1024L383.192 1024C387.202 1008.03 389.572 992.312 391.478 975.985C392.083 972.388 391.976 968.629 392.043 964.985C392.108 962.315 392.828 956.584 391.121 954.583L391.713 953.852C391.938 933.073 384.764 902.821 378.293 883.009Q376.758 877.813 375.156 872.638C374.048 869.528 373.046 866.32 371.549 863.372C361.584 840.368 352.915 824.683 339.387 803.65C337.961 800.716 336.015 797.936 334.282 795.17C332.689 792.364 331.053 788.609 328.658 786.46C331.14 765.346 331.54 744.23 333.199 723.081Z"/>
	<path fill="#E17597" d="M641.686 0L743.907 0L796.005 0C776.686 73.9247 757.902 148.274 747.825 224.132Q744.725 247.437 742.599 270.851Q740.473 294.265 739.325 317.748Q738.177 341.23 738.009 364.74Q737.841 388.25 738.653 411.746C740.374 455.553 745.687 499.721 753.184 542.897Q760.751 588.918 772.491 634.055Q775.848 646.391 779.596 658.615Q783.343 670.839 787.477 682.937Q791.611 695.035 796.127 706.996Q800.643 718.957 805.537 730.768Q810.432 742.579 815.698 754.229Q820.965 765.878 826.6 777.355Q832.234 788.831 838.231 800.123Q844.227 811.415 850.579 822.51C858.524 836.099 866.386 850.008 875.055 863.138C913.646 921.586 960.353 974.471 1009.69 1024L967.174 1024C958.292 1015.25 949.195 1006.64 940.617 997.594Q928.067 984.389 916.047 970.701Q904.027 957.012 892.556 942.86Q881.085 928.709 870.18 914.116Q859.275 899.524 848.953 884.513Q834.442 863.879 821.148 842.441Q807.855 821.002 795.824 798.831Q790.62 788.936 785.66 778.915Q780.701 768.894 775.99 758.755Q771.279 748.615 766.819 738.362Q762.359 728.11 758.153 717.75Q753.947 707.391 749.997 696.931Q746.047 686.471 742.356 675.918Q738.665 665.364 735.234 654.722Q731.804 644.081 728.637 633.358Q725.47 622.635 722.568 611.838Q719.666 601.041 717.03 590.175Q714.395 579.309 712.027 568.382Q709.66 557.455 707.563 546.473Q705.466 535.49 703.639 524.46Q701.813 513.43 700.259 502.357Q698.705 491.285 697.423 480.178Q696.142 469.071 695.135 457.936Q689.855 406.337 689.68 354.469Q689.556 338.402 689.895 322.338C690.025 317.13 690.782 311.473 690.37 306.307L690.294 305.452C691.463 296.781 691.071 287.443 691.542 278.67C692.205 266.308 693.627 253.99 694.583 241.649C690.675 238.972 682.607 224.498 679.56 219.751C676.549 212.085 671.47 204.63 667.587 197.338C661.583 186.061 656.149 173.965 651.682 161.993C649.628 158.975 646.209 146.037 645.169 141.875C637.508 118.62 633.307 93.0871 632.54 68.6277C633.165 61.0326 633.079 53.3813 633.804 45.7962C635.224 30.5869 637.316 14.6573 641.686 0Z"/>
	<path fill="#644276" d="M697.995 210.268C696.939 220.698 696.071 231.279 694.583 241.649C690.675 238.972 682.607 224.498 679.56 219.751Q688.635 214.732 697.995 210.268Z"/>
	<path fill="#FEDDCD" d="M651.682 161.993C664.495 157.116 677.018 151.336 689.619 145.929C696.333 143.049 703.034 139.942 710.034 137.818L701.737 186.8C700.464 194.579 699.606 202.562 697.995 210.268Q688.635 214.732 679.56 219.751C676.549 212.085 671.47 204.63 667.587 197.338C661.583 186.061 656.149 173.965 651.682 161.993Z"/>
	<path fill="#FEDDCD" d="M641.686 0L743.907 0C742.841 3.95049 738.757 22.3041 736.518 24.1033C737.317 26.6634 732.785 41.0125 731.56 44.0534C731.542 44.0987 731.504 44.1337 731.477 44.1738C731.311 51.2858 725.763 67.022 723.789 74.9319C720.574 87.8087 718.114 100.889 714.813 113.733C714.484 115.011 714.159 116.502 713.438 117.609C714.229 120.975 711.342 134.292 710.034 137.818C703.034 139.942 696.333 143.049 689.619 145.929C677.018 151.336 664.495 157.116 651.682 161.993C649.628 158.975 646.209 146.037 645.169 141.875C637.508 118.62 633.307 93.0871 632.54 68.6277C633.165 61.0326 633.079 53.3813 633.804 45.7962C635.224 30.5869 637.316 14.6573 641.686 0Z"/>
	<path fill="#644276" d="M713.438 117.609C714.229 120.975 711.342 134.292 710.034 137.818C703.034 139.942 696.333 143.049 689.619 145.929C677.018 151.336 664.495 157.116 651.682 161.993C649.628 158.975 646.209 146.037 645.169 141.875C653.014 139.704 660.947 135.972 668.633 133.16Q690.912 125.028 713.438 117.609Z"/>
	<path fill="#FEDDCD" d="M641.686 0L743.907 0C742.841 3.95049 738.757 22.3041 736.518 24.1033C737.317 26.6634 732.785 41.0125 731.56 44.0534C731.542 44.0987 731.504 44.1337 731.477 44.1738C698.372 51.7789 665.622 60.8967 632.54 68.6277C633.165 61.0326 633.079 53.3813 633.804 45.7962C635.224 30.5869 637.316 14.6573 641.686 0Z"/>
	<path fill="#644276" d="M736.518 24.1033C737.317 26.6634 732.785 41.0125 731.56 44.0534C731.542 44.0987 731.504 44.1337 731.477 44.1738C698.372 51.7789 665.622 60.8967 632.54 68.6277C633.165 61.0326 633.079 53.3813 633.804 45.7962C667.715 37.3786 702.39 31.6478 736.518 24.1033Z"/>
	<path fill="#BDC1F1" d="M0 0L11.2909 0L57.3328 0Q64.4651 6.86151 71.4454 13.8776Q78.4256 20.8937 85.2505 28.0611Q92.0754 35.2284 98.7416 42.5436Q105.408 49.8587 111.912 57.3181Q118.417 64.7776 124.756 72.3777Q131.095 79.9778 137.267 87.715Q143.438 95.4522 149.439 103.323Q155.439 111.193 161.265 119.193Q167.092 127.193 172.742 135.319Q178.392 143.445 183.862 151.693Q189.333 159.94 194.621 168.306Q199.91 176.671 205.014 185.151Q210.118 193.63 215.035 202.219Q219.952 210.808 224.679 219.503Q229.407 228.198 233.943 236.994Q238.479 245.79 242.821 254.684C302.253 378.946 331.106 516.803 334.027 654.154C334.362 669.928 334.461 685.59 334.106 701.368C333.946 708.459 334.136 716.053 333.199 723.081C331.54 744.23 331.14 765.346 328.658 786.46C331.053 788.609 332.689 792.364 334.282 795.17C336.015 797.936 337.961 800.716 339.387 803.65C352.915 824.683 361.584 840.368 371.549 863.372C373.046 866.32 374.048 869.528 375.156 872.638Q376.758 877.813 378.293 883.009C384.764 902.821 391.938 933.073 391.713 953.852L391.121 954.583C392.828 956.584 392.108 962.315 392.043 964.985C391.976 968.629 392.083 972.388 391.478 975.985C389.572 992.312 387.202 1008.03 383.192 1024L278.719 1024L224.907 1024L205.769 1024L106.762 1024L0 1024L0 867.935L0 834.929Q68.8065 823.1 137.457 810.395L180.783 802.8C192.014 800.896 203.47 799.302 214.445 796.188C221.113 786.186 225.999 774.72 231.218 763.926C236.252 753.515 241.788 743.155 247.609 733.163C247.678 731.051 248.062 728.861 248.293 726.754L248.953 720.215C249.955 707.689 251.386 694.975 251.48 682.419C251.837 680.028 251.918 677.577 252.08 675.165C252.976 670.952 252.722 665.948 253.019 661.615Q253.373 650.327 253.356 639.034C254.568 626.251 252.544 613.136 253.29 600.308C253.62 596.283 253.145 592.034 252.961 587.994C252.66 584.474 252.557 580.922 252.384 577.392C251.644 551.528 247.872 525.694 244.197 500.113C243.731 495.847 242.984 491.581 242.361 487.334C241.254 479.144 239.528 470.964 238.052 462.827C233.757 442.372 229.319 422.091 224.136 401.834C221.415 391.197 218.203 380.688 215.411 370.066C214.639 368.229 214.227 365.995 213.674 364.064C211.68 358.428 209.894 352.752 208.156 347.032C203.427 336.889 199.697 324.55 195.557 313.901Q185.02 286.568 171.442 260.612C170.313 258.08 169.204 255.628 167.761 253.254C165.419 248.316 163.159 243.32 160.453 238.568C149.488 218.92 139.137 199.148 127.023 180.145C124.945 177.473 123.242 174.282 121.444 171.403Q117.886 166.533 114.428 161.591C109.136 153.632 72.9678 100.102 67.9402 98.5669C65.6649 95.7946 63.2822 93.0553 61.2678 90.0853C59.24 87.4118 52.9576 79.3694 50.2345 78.0826C47.0864 70.4108 7.92225 33.0276 0 25.2673L0 0Z"/>
	<path fill="#644276" d="M328.658 786.46C331.053 788.609 332.689 792.364 334.282 795.17C336.015 797.936 337.961 800.716 339.387 803.65C334.68 806.921 330.017 810.446 325.047 813.305C325.775 808.496 326.142 803.681 326.972 798.87Q327.875 792.673 328.658 786.46Z"/>
	<path fill="#FEDDCD" d="M339.387 803.65C352.915 824.683 361.584 840.368 371.549 863.372C351.616 870.727 331.483 878.919 312.174 887.757C315.463 871.722 318.159 855.706 320.726 839.538C322.101 830.882 323.011 821.816 325.047 813.305C330.017 810.446 334.68 806.921 339.387 803.65Z"/>
	<path fill="#FEDDCD" d="M371.549 863.372C373.046 866.32 374.048 869.528 375.156 872.638Q376.758 877.813 378.293 883.009C384.764 902.821 391.938 933.073 391.713 953.852L391.121 954.583C392.828 956.584 392.108 962.315 392.043 964.985C391.976 968.629 392.083 972.388 391.478 975.985C389.572 992.312 387.202 1008.03 383.192 1024L278.719 1024C279.885 1019.69 284.025 1000.58 286.386 998.333C286.509 995.409 287.728 992.012 288.453 989.142L289.721 983.654C291.146 976.874 293.169 970.093 294.826 963.358Q302.087 934.979 308.155 906.321C309.163 902.379 309.786 898.277 310.556 894.279C310.972 892.082 311.604 889.919 312.174 887.757C331.483 878.919 351.616 870.727 371.549 863.372Z"/>
	<path fill="#644276" d="M371.549 863.372C373.046 866.32 374.048 869.528 375.156 872.638Q376.758 877.813 378.293 883.009C354.909 890.58 331.125 897.581 308.155 906.321C309.163 902.379 309.786 898.277 310.556 894.279C310.972 892.082 311.604 889.919 312.174 887.757C331.483 878.919 351.616 870.727 371.549 863.372Z"/>
	<path fill="#FEDDCD" d="M391.121 954.583C392.828 956.584 392.108 962.315 392.043 964.985C391.976 968.629 392.083 972.388 391.478 975.985C389.572 992.312 387.202 1008.03 383.192 1024L278.719 1024C279.885 1019.69 284.025 1000.58 286.386 998.333C286.509 995.409 287.728 992.012 288.453 989.142L289.721 983.654C306.147 977.949 323.219 973.472 339.956 968.732C356.973 963.913 373.936 958.769 391.121 954.583Z"/>
	<path fill="#644276" d="M391.121 954.583C392.828 956.584 392.108 962.315 392.043 964.985C391.976 968.629 392.083 972.388 391.478 975.985L330.638 989.102C315.925 992.28 301.218 995.769 286.386 998.333C286.509 995.409 287.728 992.012 288.453 989.142L289.721 983.654C306.147 977.949 323.219 973.472 339.956 968.732C356.973 963.913 373.936 958.769 391.121 954.583Z"/>
	<path fill="#FEDDCD" d="M214.445 796.188C221.113 786.186 225.999 774.72 231.218 763.926C236.252 753.515 241.788 743.155 247.609 733.163C247.584 744.778 245.217 757.216 243.663 768.733L236.443 822.998Q226.808 897.64 214.144 971.829C211.261 989.1 209.668 1006.95 205.769 1024L106.762 1024L0 1024L0 867.935L0 834.929Q68.8065 823.1 137.457 810.395L180.783 802.8C192.014 800.896 203.47 799.302 214.445 796.188Z"/>
	<path fill="#DFC6A8" d="M214.445 796.188C221.113 786.186 225.999 774.72 231.218 763.926C236.252 753.515 241.788 743.155 247.609 733.163C247.584 744.778 245.217 757.216 243.663 768.733L236.443 822.998Q226.808 897.64 214.144 971.829C211.261 989.1 209.668 1006.95 205.769 1024L106.762 1024C113.159 1010.9 118.125 996.929 124.247 983.665Q149.555 928.547 176.592 874.257C183.707 860.008 190.607 845.738 198.106 831.681C192.069 832.986 185.911 833.877 179.841 835.049Q147.625 841.316 115.304 847.014Q57.7605 858.074 0 867.935L0 834.929Q68.8065 823.1 137.457 810.395L180.783 802.8C192.014 800.896 203.47 799.302 214.445 796.188Z"/>
	<path fill="#727DC6" d="M0 25.2673C7.92225 33.0276 47.0864 70.4108 50.2345 78.0826C52.9576 79.3694 59.24 87.4118 61.2678 90.0853C63.2822 93.0553 65.6649 95.7946 67.9402 98.5669C72.9678 100.102 109.136 153.632 114.428 161.591Q117.886 166.533 121.444 171.403C123.242 174.282 124.945 177.473 127.023 180.145C139.137 199.148 149.488 218.92 160.453 238.568C163.159 243.32 165.419 248.316 167.761 253.254C169.204 255.628 170.313 258.08 171.442 260.612Q185.02 286.568 195.557 313.901C199.697 324.55 203.427 336.889 208.156 347.032C209.894 352.752 211.68 358.428 213.674 364.064C214.227 365.995 214.639 368.229 215.411 370.066C218.203 380.688 221.415 391.197 224.136 401.834C229.319 422.091 233.757 442.372 238.052 462.827C239.528 470.964 241.254 479.144 242.361 487.334C242.984 491.581 243.731 495.847 244.197 500.113C247.872 525.694 251.644 551.528 252.384 577.392C252.557 580.922 252.66 584.474 252.961 587.994C253.145 592.034 253.62 596.283 253.29 600.308C252.544 613.136 254.568 626.251 253.356 639.034Q253.373 650.327 253.019 661.615C252.722 665.948 252.976 670.952 252.08 675.165C251.918 677.577 251.837 680.028 251.48 682.419C251.386 694.975 249.955 707.689 248.953 720.215L248.293 726.754C248.062 728.861 247.678 731.051 247.609 733.163C241.788 743.155 236.252 753.515 231.218 763.926C225.999 774.72 221.113 786.186 214.445 796.188C203.47 799.302 192.014 800.896 180.783 802.8L137.457 810.395Q68.8064 823.101 0 834.929L0 817.456L0 467.831L0 392.494L0 376.046L0 347.539L0 340.991L0 324.58L0 287.131L0 272.762L0 243.628L0 25.2673Z"/>
	<path fill="#644276" d="M227.64 654.85C236.058 657.371 244.431 659.744 253.019 661.615C252.722 665.948 252.976 670.952 252.08 675.165C251.918 677.577 251.837 680.028 251.48 682.419C245.826 680.256 224.338 674.32 221.536 670.426C219.679 667.844 220.571 663.852 221.253 661.045C222.891 658.009 224.711 656.593 227.64 654.85Z"/>
	<path fill="#FEDDCD" d="M113.893 416.752L114.096 417.549L63.5733 459.454C59.4269 454.783 54.4108 449.862 51.417 444.383C59.4021 441.613 66.995 437.852 74.6664 434.336C87.669 428.378 100.693 422.25 113.893 416.752Z"/>
	<path fill="#FEDDCD" d="M198.514 588.801C216.81 592.165 235.121 596.293 253.29 600.308C252.544 613.136 254.568 626.251 253.356 639.034C247.776 633.363 199.198 590.93 198.514 588.801Z"/>
	<path fill="#644276" d="M134.637 560.44C146.943 560.303 159.718 563.379 172.08 564.133L176.591 564.805C201.667 569.768 227.578 571.058 252.384 577.392C252.557 580.922 252.66 584.474 252.961 587.994C253.145 592.034 253.62 596.283 253.29 600.308C235.121 596.293 216.81 592.165 198.514 588.801C195.019 587.528 190.179 587.256 186.457 586.605C178.483 585.21 137.161 578.868 133.22 575.203C131.81 572.145 132.29 568.599 132.453 565.32L134.637 560.44Z"/>
	<path fill="#644276" d="M160.453 238.568C163.159 243.32 165.419 248.316 167.761 253.254C158.285 260.505 149.311 268.423 139.989 275.873Q95.0175 311.351 51.1742 348.216C39.7392 357.74 28.025 366.729 16.9503 376.703C13.7341 379.599 9.89949 382.565 7.17237 385.921C4.75969 388.07 2.24934 390.175 0 392.494L0 376.046L6.11557 370.862C41.0913 342.237 74.8384 311.987 108.917 282.314Q134.48 260.199 160.453 238.568Z"/>
	<path fill="#644276" d="M208.156 347.032C209.894 352.752 211.68 358.428 213.674 364.064C207.024 368.361 199.446 371.466 192.265 374.773L160.325 389.348L70.658 431.294C60.5989 436.058 40.266 444.373 32.5032 450.413L30.181 451.361C28.9418 451.198 28.2621 451.177 27.3851 450.138C25.885 448.361 25.0121 444.385 25.5945 442.129C26.8819 437.14 36.9006 434.316 41.1027 431.987C82.4947 412.807 123.745 390.806 164.279 369.748C178.881 362.163 193.343 354.195 208.156 347.032Z"/>
	<path fill="#DFC6A8" d="M242.361 487.334C242.984 491.581 243.731 495.847 244.197 500.113C247.872 525.694 251.644 551.528 252.384 577.392C227.578 571.058 201.667 569.768 176.591 564.805L172.08 564.133C168.669 560.708 164.748 557.77 161.048 554.665L136.419 534.355C130.321 529.331 124.815 523.648 118.813 518.516C115.579 515.751 105.625 508.748 104.071 505.139C150.335 500.523 196.14 492.144 242.361 487.334Z"/>
	<path fill="#FEDDCD" d="M244.197 500.113C247.872 525.694 251.644 551.528 252.384 577.392C227.578 571.058 201.667 569.768 176.591 564.805C182.702 555.988 197.559 543.479 205.998 535.643C218.745 523.807 231.305 511.797 244.197 500.113Z"/>
	<path fill="#FEDDCD" d="M114.428 161.591Q117.886 166.533 121.444 171.403C123.242 174.282 124.945 177.473 127.023 180.145C139.137 199.148 149.488 218.92 160.453 238.568Q134.48 260.199 108.917 282.314C74.8384 311.987 41.0913 342.237 6.11557 370.862L0 376.046L0 347.539L0 340.991L0 324.58C24.9488 286.433 52.1934 249.686 78.4671 212.443L100.143 181.386C104.652 174.811 108.961 167.41 114.428 161.591Z"/>
	<path fill="#727DC6" d="M0 340.991C6.14942 332.65 11.6171 323.802 17.7129 315.412C40.2315 284.418 62.9571 253.663 85.0647 222.362C97.0631 205.373 110.258 188.933 121.444 171.403C123.242 174.282 124.945 177.473 127.023 180.145C121.645 190.284 108.054 205.78 100.694 215.354L29.8866 307.563Q19.4416 321.207 9.13379 334.956C6.70455 338.168 3.34524 341.532 1.32984 344.972C0.865055 345.765 0.75843 346.477 0.592302 347.362C3.2751 351.34 3.3128 364.962 6.11557 370.862L0 376.046L0 347.539L0 340.991Z"/>
	<path fill="#644276" d="M114.428 161.591Q117.886 166.533 121.444 171.403C110.258 188.933 97.0631 205.373 85.0647 222.362C62.9571 253.663 40.2315 284.418 17.7129 315.412C11.6171 323.802 6.14942 332.65 0 340.991L0 324.58C24.9488 286.433 52.1934 249.686 78.4671 212.443L100.143 181.386C104.652 174.811 108.961 167.41 114.428 161.591Z"/>
	<path fill="#FEDDCD" d="M171.442 260.612Q185.02 286.568 195.557 313.901C199.697 324.55 203.427 336.889 208.156 347.032C193.343 354.195 178.881 362.163 164.279 369.748C123.745 390.806 82.4947 412.807 41.1027 431.987C29.7417 416.954 20.9221 400.354 11.2418 384.238C33.4833 369.348 54.0557 351.977 75.0809 335.45L171.442 260.612Z"/>
	<path fill="#DFC6A8" d="M113.893 416.752C123.285 411.584 134.044 407.767 143.848 403.342C167.771 392.546 191.978 381.876 215.411 370.066C218.203 380.688 221.415 391.197 224.136 401.834C229.319 422.091 233.757 442.372 238.052 462.827C239.528 470.964 241.254 479.144 242.361 487.334C196.14 492.144 150.335 500.523 104.071 505.139C93.0747 505.968 82.2351 508.233 71.2152 508.87L70.96 508.445C68.0138 503.421 68.3485 498.717 69.8076 493.262C76.9114 491.809 84.205 490.919 91.3735 489.808C86.8287 486.705 67.5691 464.61 63.5733 459.454L114.096 417.549L113.893 416.752Z"/>
	<path fill="#644276" d="M238.052 462.827C239.528 470.964 241.254 479.144 242.361 487.334C196.14 492.144 150.335 500.523 104.071 505.139C93.0747 505.968 82.2351 508.233 71.2152 508.87L70.96 508.445C68.0138 503.421 68.3485 498.717 69.8076 493.262C76.9114 491.809 84.205 490.919 91.3735 489.808C140.528 482.113 189.153 471.899 238.052 462.827Z"/>
	<path fill="#FEDDCD" d="M0 25.2673C7.92225 33.0276 47.0864 70.4108 50.2345 78.0826C52.9576 79.3694 59.24 87.4118 61.2678 90.0853C63.2822 93.0553 65.6649 95.7946 67.9402 98.5669C72.9678 100.102 109.136 153.632 114.428 161.591C108.961 167.41 104.652 174.811 100.143 181.386L78.4671 212.443C52.1934 249.686 24.9488 286.433 0 324.58L0 287.131L0 272.762L0 243.628L0 25.2673Z"/>
	<path fill="#727DC6" d="M61.2678 90.0853C63.2822 93.0553 65.6649 95.7946 67.9402 98.5669Q51.3206 147.725 33.2313 196.361C21.9648 226.481 9.82814 256.514 0 287.131L0 272.762L45.6399 136.258C50.6055 121.872 55.1865 103.548 61.2678 90.0853Z"/>
	<path fill="#644276" d="M50.2345 78.0826C52.9576 79.3694 59.24 87.4118 61.2678 90.0853C55.1865 103.548 50.6055 121.872 45.6399 136.258L0 272.762L0 243.628Q17.0559 191.184 32.5585 138.26C38.5597 118.249 44.8813 98.2798 50.2345 78.0826Z"/>
	<path fill="#FEDDCD" d="M0 25.2673C7.92225 33.0276 47.0864 70.4108 50.2345 78.0826C44.8813 98.2798 38.5597 118.249 32.5585 138.26Q17.0559 191.184 0 243.628L0 25.2673Z"/>
	<path fill="#DFC6A8" d="M0 467.831C7.19162 477.476 15.0375 486.628 22.7917 495.821Q57.1467 536.22 95.047 573.313Q109.636 587.422 124.525 601.215C128.838 605.242 134.491 609.507 138.085 614.124C148.705 625.067 160.403 635.057 171.627 645.372Q194.357 666.042 216.043 687.805C220.172 690.898 223.865 694.938 227.583 698.517C234.864 705.527 242.418 712.496 248.953 720.215L248.293 726.754C248.062 728.861 247.678 731.051 247.609 733.163C241.788 743.155 236.252 753.515 231.218 763.926C225.999 774.72 221.113 786.186 214.445 796.188C203.47 799.302 192.014 800.896 180.783 802.8L137.457 810.395Q68.8064 823.101 0 834.929L0 817.456L0 467.831Z"/>
	<path fill="#FEDDCD" d="M98.0231 660.814C109.907 645.441 124.492 627.913 138.085 614.124C148.705 625.067 160.403 635.057 171.627 645.372Q194.357 666.042 216.043 687.805C211.188 687.701 199.656 683.559 194.167 682.354Q145.95 672.232 98.0231 660.814Z"/>
	<path fill="#FEDDCD" d="M77.7631 688.641Q129.535 699.55 181.077 711.502Q202.701 716.297 224.266 721.347C232.255 723.146 240.394 724.603 248.293 726.754C248.062 728.861 247.678 731.051 247.609 733.163C241.788 743.155 236.252 753.515 231.218 763.926C225.999 774.72 221.113 786.186 214.445 796.188C203.47 799.302 192.014 800.896 180.783 802.8L137.457 810.395Q68.8064 823.101 0 834.929L0 817.456C3.37271 812.048 5.84985 805.797 8.76896 800.105C14.0779 789.753 19.7457 779.493 25.453 769.354C29.8244 761.589 34.7689 754.069 39.4863 746.506Q57.9581 717.133 77.7631 688.641Z"/>
	<path fill="#B2436C" d="M796.005 0L819.196 0L917.056 0L1024 0L1024 154.667L1024 191.564L1024 201.043L1024 554.358L1024 634.442L1024 657.17L1024 676.495L1024 685.335L1024 698.394L1024 731.861L1024 752.385L1024 773.399L1024 1004.26L1024 1024L1009.69 1024C960.353 974.471 913.646 921.586 875.055 863.138C866.386 850.008 858.524 836.099 850.579 822.51Q844.227 811.415 838.231 800.123Q832.234 788.831 826.6 777.355Q820.965 765.878 815.698 754.229Q810.432 742.579 805.537 730.768Q800.643 718.957 796.127 706.996Q791.611 695.035 787.477 682.937Q783.343 670.839 779.596 658.615Q775.848 646.391 772.491 634.055Q760.751 588.918 753.184 542.897C745.687 499.721 740.374 455.553 738.653 411.746Q737.841 388.25 738.009 364.74Q738.177 341.23 739.325 317.748Q740.473 294.265 742.599 270.851Q744.725 247.437 747.825 224.132C757.902 148.274 776.686 73.9247 796.005 0Z"/>
	<path fill="#644276" d="M774.059 338.084C779.657 341.78 803.07 355.878 804.276 360.807C804.878 363.269 804.143 367.126 802.667 369.179C801.611 370.649 800.078 371.465 798.299 371.647C792.586 372.234 778.626 361.631 773.914 357.541C772.709 356.495 772.972 354.959 772.826 353.451C773.559 348.455 773.666 343.127 774.059 338.084Z"/>
	<path fill="#FEDDCD" d="M771.904 385.121C782.85 396.529 794.755 407.168 806.258 418.017C811.162 422.642 817.198 427.303 821.133 432.76C804.726 430.413 788.482 427.018 772.042 424.907Q771.782 405.015 771.904 385.121Z"/>
	<path fill="#644276" d="M772.042 424.907C788.482 427.018 804.726 430.413 821.133 432.76C825.322 434.377 830.689 434.577 835.15 435.248C844.023 436.583 882.23 441.457 887.072 444.822C889.045 446.193 890.044 448.631 891.025 450.73C891.555 453.504 891.75 455.706 890.068 458.134C888.797 459.97 886.657 461.05 884.494 461.408C879.012 462.316 855.755 456.925 846.799 456.483C836.66 454.771 826.381 453.732 816.179 452.454Q794.705 449.632 773.201 447.047C772.127 444.513 772.441 441.288 772.404 438.574C771.843 434.083 772.053 429.431 772.042 424.907Z"/>
	<path fill="#FEDDCD" d="M773.201 447.047Q794.705 449.632 816.179 452.454C826.381 453.732 836.66 454.771 846.799 456.483L849.286 459.051C842.927 463.805 837.155 469.346 831.155 474.542Q814.763 488.652 798.183 502.54C792.03 507.692 786.009 513.134 779.493 517.826C776.072 494.333 775.497 470.622 773.201 447.047Z"/>
	<path fill="#DFC6A8" d="M849.286 459.051C865.057 474.617 881.751 489.346 897.84 504.597C903.3 509.773 909.438 514.808 914.464 520.373C905.982 521.722 897.276 522.247 888.726 523.074Q868.056 525.22 847.358 527.065C825.515 529.029 803.8 531.756 782.008 534.18C781.001 528.739 780.203 523.312 779.493 517.826C786.009 513.134 792.03 507.692 798.183 502.54Q814.763 488.652 831.155 474.542C837.155 469.346 842.927 463.805 849.286 459.051Z"/>
	<path fill="#DFC6A8" d="M914.464 520.373C922.751 519.878 946.266 516.049 952.169 520.936C953.36 521.922 954.29 523.393 954.987 524.754C955.802 526.592 956.29 528.013 955.388 529.982C954.295 532.369 951.449 533.361 949.086 533.944C943.549 535.311 937.534 535.069 932.09 536.654C934.99 538.053 956.804 561.077 959.944 565.211C952.106 572.95 942.363 578.914 933.465 585.354C925.51 591.111 917.891 597.312 910.059 603.23C906.547 605.884 899.065 609.961 897.015 613.789C889.621 618.526 875.628 623.515 866.967 627.443C847.756 636.156 827.905 646.323 808.303 653.859C799.435 621.64 790.181 588.963 785.471 555.833C784.711 551.64 784.069 547.419 783.375 543.214L782.008 534.18C803.8 531.756 825.515 529.029 847.358 527.065Q868.056 525.22 888.726 523.074C897.276 522.247 905.982 521.722 914.464 520.373Z"/>
	<path fill="#644276" d="M914.464 520.373C922.751 519.878 946.266 516.049 952.169 520.936C953.36 521.922 954.29 523.393 954.987 524.754C955.802 526.592 956.29 528.013 955.388 529.982C954.295 532.369 951.449 533.361 949.086 533.944C943.549 535.311 937.534 535.069 932.09 536.654C919.671 538.644 907.097 539.838 894.624 541.462Q858.618 545.957 822.697 551.087C810.496 552.741 797.418 553.116 785.471 555.833C784.711 551.64 784.069 547.419 783.375 543.214L782.008 534.18C803.8 531.756 825.515 529.029 847.358 527.065Q868.056 525.22 888.726 523.074C897.276 522.247 905.982 521.722 914.464 520.373Z"/>
	<path fill="#FEDDCD" d="M819.196 0L917.056 0L1024 0L1024 154.667L1024 191.564C1013.21 193.76 1002.23 195.187 991.346 196.847L936.65 205.264L854.001 218.172C839.926 220.372 825.824 223.044 811.7 224.834C807.551 229.672 804.464 236.14 801.382 241.707C794.368 254.374 787.834 267.984 779.757 279.969C780.393 271.442 781.651 262.855 782.562 254.343Q787.673 207.873 794.402 161.61C801.862 107.664 809.248 53.5505 819.196 0Z"/>
	<path fill="#DFC6A8" d="M819.196 0L917.056 0C909.093 15.3015 902.764 31.8608 895.907 47.7251Q881.867 79.7392 867.211 111.476Q853.644 141.011 839.095 170.075C835.485 177.438 830.859 184.7 827.806 192.287Q884.18 181.201 940.683 170.801L992.015 160.936C1002.64 158.849 1013.31 156.378 1024 154.667L1024 191.564C1013.21 193.76 1002.23 195.187 991.346 196.847L936.65 205.264L854.001 218.172C839.926 220.372 825.824 223.044 811.7 224.834C807.551 229.672 804.464 236.14 801.382 241.707C794.368 254.374 787.834 267.984 779.757 279.969C780.393 271.442 781.651 262.855 782.562 254.343Q787.673 207.873 794.402 161.61C801.862 107.664 809.248 53.5505 819.196 0Z"/>
	<path fill="#DFC6A8" d="M1024 191.564L1024 201.043L1024 554.358C1012.6 539.774 1000.88 525.155 988.573 511.328C970.334 490.837 950.484 471.322 930.732 452.307C915.454 437.599 899.546 423.584 884.245 408.895C875.759 402.111 867.843 394.282 859.773 386.996C840.035 369.172 820.69 351.168 802.644 331.602C799.705 329.156 796.968 325.454 794.33 322.592Q785.829 313.427 777.231 304.353C776.431 301.686 777.519 296.657 777.807 293.829C778.344 289.283 778.413 284.343 779.757 279.969C787.834 267.984 794.368 254.374 801.382 241.707C804.464 236.14 807.551 229.672 811.7 224.834C825.824 223.044 839.926 220.372 854.001 218.172L936.65 205.264L991.346 196.847C1002.23 195.187 1013.21 193.76 1024 191.564Z"/>
	<path fill="#FEDDCD" d="M802.644 331.602C808.285 331.962 817.273 335.835 823.297 337.318C856.815 345.571 889.927 355.408 923.456 363.541C911.689 379.343 897.936 394.702 884.245 408.895C875.759 402.111 867.843 394.282 859.773 386.996C840.035 369.172 820.69 351.168 802.644 331.602Z"/>
	<path fill="#FEDDCD" d="M1024 191.564L1024 201.043C1007.38 241.049 984.317 278.527 960.199 314.399C955.945 320.726 951.346 326.813 947.081 333.127L833.041 306.776C814.68 302.508 796.261 297.6 777.807 293.829C778.344 289.283 778.413 284.343 779.757 279.969C787.834 267.984 794.368 254.374 801.382 241.707C804.464 236.14 807.551 229.672 811.7 224.834C825.824 223.044 839.926 220.372 854.001 218.172L936.65 205.264L991.346 196.847C1002.23 195.187 1013.21 193.76 1024 191.564Z"/>
	<path fill="#FEDDCD" d="M959.944 565.211Q966.147 572.112 971.842 579.438L973.42 579.142C978.068 576.235 986.42 572.445 991.874 573.719C993.938 574.201 996.546 575.587 997.582 577.534C998.366 579.004 998.486 580.436 997.92 581.989C995.559 588.469 986.857 589.119 981.869 592.671C993.544 607.916 1003.17 624.126 1014.11 639.821L1014.52 640.036C1017.4 637.801 1020.8 636.171 1024 634.442L1024 657.17L1024 676.495L1024 685.335L1024 698.394L1024 731.861L1024 752.385L1024 773.399L1024 1004.26C1017.9 998.324 1012.24 991.789 1006.44 985.552Q988.562 966.544 971.653 946.669Q966.862 941.325 962.367 935.73L955.661 927.87C938.182 907.31 922.513 885.093 907.115 862.955L900.251 852.172C898.569 849.92 897.087 847.587 895.602 845.204Q876.499 815.734 860.331 784.557C858.035 780.834 856.319 776.555 854.431 772.601C853.012 770.073 851.852 767.447 850.672 764.802Q831.779 723.237 816.716 680.135C816.495 678.956 816.062 677.781 815.717 676.631C814.008 672.743 812.929 668.39 811.476 664.38L808.303 653.859C827.905 646.323 847.756 636.156 866.967 627.443C875.628 623.515 889.621 618.526 897.015 613.789C899.065 609.961 906.547 605.884 910.059 603.23C917.891 597.312 925.51 591.111 933.465 585.354C942.363 578.914 952.106 572.95 959.944 565.211Z"/>
	<path fill="#DFC6A8" d="M815.717 676.631C822.244 672.541 829.586 669.388 836.563 666.135C832.777 671.956 823.261 678.332 816.716 680.135C816.495 678.956 816.062 677.781 815.717 676.631Z"/>
	<path fill="#644276" d="M959.944 565.211Q966.147 572.112 971.842 579.438L973.42 579.142C978.068 576.235 986.42 572.445 991.874 573.719C993.938 574.201 996.546 575.587 997.582 577.534C998.366 579.004 998.486 580.436 997.92 581.989C995.559 588.469 986.857 589.119 981.869 592.671C973.043 596.878 964.532 601.71 955.817 606.139L904.347 631.856L858.943 654.512C851.457 658.311 843.809 661.891 836.563 666.135C829.586 669.388 822.244 672.541 815.717 676.631C814.008 672.743 812.929 668.39 811.476 664.38L808.303 653.859C827.905 646.323 847.756 636.156 866.967 627.443C875.628 623.515 889.621 618.526 897.015 613.789C899.065 609.961 906.547 605.884 910.059 603.23C917.891 597.312 925.51 591.111 933.465 585.354C942.363 578.914 952.106 572.95 959.944 565.211Z"/>
	<path fill="#FEDDCD" d="M959.944 565.211Q966.147 572.112 971.842 579.438C947.296 591.672 921.844 602.137 897.015 613.789C899.065 609.961 906.547 605.884 910.059 603.23C917.891 597.312 925.51 591.111 933.465 585.354C942.363 578.914 952.106 572.95 959.944 565.211Z"/>
	<path fill="#FEDDCD" d="M1024 634.442L1024 657.17L1024 676.495L1024 685.335L1024 698.394C1014.81 710.649 1006.37 723.51 997.521 736.018Q968.915 775.81 940.905 816.023C929.83 831.732 919.017 847.867 907.115 862.955L900.251 852.172C898.569 849.92 897.087 847.587 895.602 845.204Q876.499 815.734 860.331 784.557C858.035 780.834 856.319 776.555 854.431 772.601C853.012 770.073 851.852 767.447 850.672 764.802C854.038 762.689 857.159 759.854 860.283 757.391Q869.906 749.72 879.703 742.274C914.105 716.428 947.817 689.647 982.32 663.933C992.97 655.995 1002.87 646.939 1014.11 639.821L1014.52 640.036C1017.4 637.801 1020.8 636.171 1024 634.442Z"/>
	<path fill="#878DAC" d="M895.602 845.204C904.296 833.273 913.633 821.88 922.621 810.175L981.215 733.907C995.758 714.984 1009.31 695.32 1024 676.495L1024 685.335C1017.78 695.176 1010.83 704.581 1004.07 714.06Q987.276 737.908 969.738 761.214C946.94 791.831 924.303 822.513 900.251 852.172C898.569 849.92 897.087 847.587 895.602 845.204Z"/>
	<path fill="#644276" d="M900.251 852.172C924.303 822.513 946.94 791.831 969.738 761.214Q987.276 737.908 1004.07 714.06C1010.83 704.581 1017.78 695.176 1024 685.335L1024 698.394C1014.81 710.649 1006.37 723.51 997.521 736.018Q968.915 775.81 940.905 816.023C929.83 831.732 919.017 847.867 907.115 862.955L900.251 852.172Z"/>
	<path fill="#644276" d="M1024 634.442L1024 657.17C1022.9 655.15 1021.78 653.14 1020.76 651.08C1014.65 656.831 1007.96 662 1001.48 667.319L975.304 688.937C955.02 705.579 935.384 722.999 915.089 739.645L880.742 767.923C873.927 773.467 866.851 778.659 860.331 784.557C858.035 780.834 856.319 776.555 854.431 772.601C853.012 770.073 851.852 767.447 850.672 764.802C854.038 762.689 857.159 759.854 860.283 757.391Q869.906 749.72 879.703 742.274C914.105 716.428 947.817 689.647 982.32 663.933C992.97 655.995 1002.87 646.939 1014.11 639.821L1014.52 640.036C1017.4 637.801 1020.8 636.171 1024 634.442Z"/>
	<path fill="#878DAC" d="M1014.11 639.821L1014.52 640.036L1017.69 644.778C1006.05 652.795 995.447 662.543 984.402 671.37L923.58 719.163Q903.744 734.945 883.465 750.154C873.828 757.379 863.324 764.502 854.431 772.601C853.012 770.073 851.852 767.447 850.672 764.802C854.038 762.689 857.159 759.854 860.283 757.391Q869.906 749.72 879.703 742.274C914.105 716.428 947.817 689.647 982.32 663.933C992.97 655.995 1002.87 646.939 1014.11 639.821Z"/>
	<path fill="#FEDDCD" d="M907.115 862.955C919.017 847.867 929.83 831.732 940.905 816.023Q968.915 775.81 997.521 736.018C1006.37 723.51 1014.81 710.649 1024 698.394L1024 731.861L1024 752.385L1024 773.399L1024 1004.26C1017.9 998.324 1012.24 991.789 1006.44 985.552Q988.562 966.544 971.653 946.669Q966.862 941.325 962.367 935.73L955.661 927.87C938.182 907.31 922.513 885.093 907.115 862.955Z"/>
	<path fill="#878DAC" d="M1024 731.861L1024 752.385L1024 773.399C1019.61 789.288 1014.28 804.801 1009.4 820.53Q996.106 862.609 983.852 905.003C979.842 918.767 974.001 932.522 971.653 946.669Q966.862 941.325 962.367 935.73L955.661 927.87C962.042 913.405 966.334 897.959 971.745 883.099Q990.973 830.339 1008.92 777.129C1014.05 762.06 1018.58 746.848 1024 731.861Z"/>
	<path fill="#644276" d="M1024 752.385L1024 773.399C1019.61 789.288 1014.28 804.801 1009.4 820.53Q996.106 862.609 983.852 905.003C979.842 918.767 974.001 932.522 971.653 946.669Q966.862 941.325 962.367 935.73C967.508 924.118 971.022 911.693 975.293 899.728Q993.952 846.554 1010.86 792.797L1018.39 769.47C1020.19 763.771 1021.72 757.913 1024 752.385Z"/>
	<path fill="#FEDDCD" d="M1024 773.399L1024 1004.26C1017.9 998.324 1012.24 991.789 1006.44 985.552Q988.562 966.544 971.653 946.669C974.001 932.522 979.842 918.767 983.852 905.003Q996.106 862.609 1009.4 820.53C1014.28 804.801 1019.61 789.288 1024 773.399Z"/>
</svg>
